<svg id="Calque_1" data-name="Calque 1" xmlns="http://www.w3.org/2000/svg" width="49.5063mm" height="121.564mm" viewBox="0 0 140.3329 344.5907"><defs><style>.cls-1{fill:#fff;stroke:#1a4651;stroke-width:12px;}</style></defs><path class="cls-1" d="M297.7537,556.8422c-5.4653-8.9083-10.0573-16.551-14.8042-24.0963-9.5455-15.1727-18.9318-30.4548-28.8722-45.3661a19.822,19.822,0,0,1,3.148-25.43c9.2684-8.6264,20.7767-13.3229,30.9512-20.2706,5.0649-3.4586,10.5674-6.2771,15.6225-9.7483,1.2186-.8367,2.4812-3.6292,1.9728-4.6531-6.0462-12.178-12.4161-24.1956-18.7416-36.2339-.2714-.5164-.9367-.8259-2.0968-1.8033-.7293,7.9153-2.2673,15.2311-1.7374,22.3939.3151,4.2592,3.77,8.3413,6.0151,12.3909,4.5945,8.2866,3.6549,11.8024-4.4428,16.6273-14.8455,8.8457-15.9,6.1071-23.6312-6.1222-6.7715-10.7108-8.9278-20.9774-6.5793-33.5465,2.5451-13.623,2.3523-27.7391,3.7555-41.5995,1.3268-13.1057,2.967-26.2822,12.8182-36.3834,5.6137-5.7561,11.648-10.8857,20.4041-11.1595,9-.2815,15.3839,3.8532,19.4257,11.507,15.9622,30.2267,31.7327,60.5544,47.6427,90.8086,5.995,11.4,4.27,26.57-9.5525,34.328-18.0716,10.1432-35.4114,21.5861-53.1374,32.3525-3.4015,2.0659-4.0049,3.7786-1.6758,7.4261,14.4743,22.667,28.7152,45.4838,42.9279,68.3166,4.8623,7.8113,4.88,16.0954,1.2385,24.3678-1.7064,3.8768-4.6882,6.5954-9.2063,6.5368q-22.2364-.2883-44.4678-.8926a7.567,7.567,0,0,1-4.3658-2.0132c-6.0853-5.4866-5.9977-19.75.3308-24.9093,1.8929-1.5432,4.6735-2.303,7.1653-2.7235C290.5745,556.4883,293.4252,556.8422,297.7537,556.8422Z" transform="translate(-227.5414 -248.895)"/><path class="cls-1" d="M263.0808,254.8988c17.9,1.0656,28.9865,13.5494,28.7381,29.4428-.2744,17.559-12.6461,29.0042-29.2886,28.87-17.35-.14-28.8845-12.4047-28.9883-29.162C233.4433,268.059,245.4,255.2756,263.0808,254.8988Z" transform="translate(-227.5414 -248.895)"/></svg>