<svg id="Layer_1" data-name="Layer 1" xmlns="http://www.w3.org/2000/svg" xmlns:xlink="http://www.w3.org/1999/xlink" width="1400" height="1400" viewBox="0 0 1400 1400"><defs><style>.cls-1{fill:none;}.cls-2{clip-path:url(#clip-path);}.cls-3{fill:#eefeff;}.cls-4{fill:#aaeaf9;}.cls-5{fill:#e1fcff;}.cls-6{fill:#caf8ff;}.cls-7{fill:#89543d;}.cls-8{fill:#5d170b;}.cls-9{fill:#8f624b;}.cls-10{fill:#503025;}.cls-11{fill:#fff;}.cls-12{fill:#754b35;}.cls-13{fill:#fca87e;}.cls-14{fill:#383735;}.cls-15{fill:#ffbe98;}.cls-16{fill:#161514;}.cls-17{fill:#b59f94;}.cls-18{fill:#817069;}.cls-19{fill:#edf4f4;}.cls-20{fill:#161416;}.cls-21{fill:#8badc1;}.cls-22{fill:#aed0e5;}.cls-23{fill:#8caebf;}.cls-24{fill:#242c30;}.cls-25{fill:#b9d8ea;}.cls-26{fill:#9fc2d3;}.cls-27{fill:#c7e4f9;}.cls-28{fill:#b1d1e5;}.cls-29{fill:#ed9191;}</style><clipPath id="clip-path"><circle class="cls-1" cx="700.5" cy="700.5" r="700"/></clipPath></defs><g class="cls-2"><ellipse class="cls-3" cx="485" cy="1200.5" rx="158" ry="36.5"/><ellipse class="cls-3" cx="212.8333" cy="1200" rx="80.1666" ry="16"/><ellipse class="cls-3" cx="900" cy="1200.5" rx="158" ry="36.5"/><path class="cls-3" d="M0,1400v-48.8833c116.3757,2.9946,262.6257,8.2291,431,11.8833,599,13,12-54,446-58s375-34,314-90,209-35,209-35v220Z"/><rect class="cls-4" width="1400" height="1065"/><path class="cls-5" d="M1400,391.1254C1341.7461,348.794,1236.7231,300.9272,1202,471c-49,240-327.8682,25.6038-422.4341,230.8019S415,855,357,935c-34.1106,47.049-67.1787,94.7894,46.0239,130H1400Z"/><path class="cls-6" d="M842,801c-329,54-414,40-414-185S313,579,262,296C235.062,146.52,111.0366,110.3168,0,109.4237V1065H1304.9282C1065.5205,978.68,1164.3662,748.0888,842,801Z"/><path class="cls-7" d="M977.6328,767.3489c-19.6122-20.2084,41.5916-78.6673,41.5916-78.6673,43.9831,44.8677,109.4187,32.4084,175.8432,17.3063,0,0,16.558,10.8525,18.7042,49.798,2.1437,38.9456-216.6685,68.5554-263.2932,20.4316,0,0,12.2454,2.5268,28.2907-7.8794A9.67,9.67,0,0,1,977.6328,767.3489Z"/><path class="cls-8" d="M732.3717,487.7539c0,103.8023,76.0441,187.9493,169.8511,187.9493,93.8047,0,169.8488-84.147,169.8488-187.9493,0-103.8072-76.0441-187.9541-169.8488-187.9541C808.4158,299.8,732.3717,383.9467,732.3717,487.7539Z"/><path class="cls-9" d="M779.8131,982.0515s13.43,73.3043,13.43,76.658c0,3.3588,30.1707,11.8775,46.8148,15.2972,27.2356,5.5962,63.4184,5.5962,63.4184,5.5962v-69.0222Z"/><path class="cls-9" d="M1031.594,981.9094s-13.4274,73.3043-13.4274,76.6632c0,3.3536-30.1733,11.8723-46.8174,15.292-27.23,5.5962-63.4184,5.5962-63.4184,5.5962v-69.0222Z"/><path class="cls-10" d="M1028.466,999.0939c-.01.01-27.4815,16.9511-57.1194,22.5474-27.2176,5.1346-58.025,9.4269-63.4158,41.9288v-53.1315l123.6632-28.5292S1030.28,989.109,1028.466,999.0939Z"/><path class="cls-10" d="M782.9207,999.0939c.0125.01,27.4839,16.9511,57.1192,22.5474,27.2228,5.1346,58.0253,9.4269,63.4135,41.9288v-53.1315L779.79,981.9094S781.1119,989.109,782.9207,999.0939Z"/><path class="cls-10" d="M1204.72,760.1291s-9.4294-30.9394-7.651-43.0858c1.7758-12.1514,15.566-25.5562,28.1182-26.8041,12.5548-1.243,32.6237,6.5146,33.57,10.8019.9487,4.282-19.4728,10.4111-16.9055,13.0088,2.0447,2.08,2.08,44.6787,2.08,44.6787S1215.824,767.41,1204.72,760.1291Z"/><path d="M1235.4922,681.1978l-.3552-.7255-14.701-419.1868c8.2143-6.8089,20.3633-1.04,20.3633-1.04l16.2,464.5911,17.3521,470.908s-11.6339,8.5642-20.3683,1.03Z"/><path class="cls-10" d="M1251.2029,695.4905s18.1383-11.7,24.8306-5.2108c6.69,6.4891,7.8591,23.4-22.5449,24.4906C1223.0844,715.8561,1251.2029,695.4905,1251.2029,695.4905Z"/><path class="cls-10" d="M1251.7152,712.3858s19.899-8.3717,25.3584-.8219c5.4617,7.5547,3.6758,24.4144-26.4568,20.2032C1220.4867,727.556,1251.7152,712.3858,1251.7152,712.3858Z"/><path class="cls-10" d="M1252.2176,726.4956s19.8988-8.3766,25.3581-.8219c5.462,7.5495,3.6784,24.4095-26.4515,20.2032C1220.9917,741.6658,1252.2176,726.4956,1252.2176,726.4956Z"/><path class="cls-10" d="M1251.3473,740.6207s19.8939-8.3717,25.3559-.8219c5.4591,7.5547,3.6757,24.4144-26.4542,20.2084C1220.1165,755.7961,1251.3473,740.6207,1251.3473,740.6207Z"/><path class="cls-10" d="M1229.6244,690.1478s28.4939,1.3393,30.4448,9.6045c1.9532,8.2649-20.4776,14.5665-27.4816,15.3985C1225.5808,715.9829,1229.6244,690.1478,1229.6244,690.1478Z"/><path class="cls-11" d="M1174.8008,783.9754c4.7084-14.9676-6.3852-59.3774-21.799-72.62,4.6146-8.5644,42.274-8.7421,42.274-8.7421s12.57,8.6457,18.6584,29.4834c4.9619,16.9815,6.2431,26.5047,2.6993,36.0127C1211.04,778.2318,1174.8008,783.9754,1174.8008,783.9754Z"/><path class="cls-10" d="M730.4021,955.7382s7.6637,21.6746,18.1079,33.608c10.4441,11.9384,15.292,4.1044,15.292,4.1044s1.583,1.8725,5.8272-2.9832c4.2441-4.85,3.8433-27.6057,1.4332-30.5892C768.655,956.895,729.0855,952.2729,730.4021,955.7382Z"/><path class="cls-7" d="M779.566,701.8019s-22.4789,30.8074-40.9445,87.8811-16.7888,158.82-16.7888,158.82,11.0707,16.4235,50.0391,18.0723C810.835,968.2244,803.4375,721.7415,779.566,701.8019Z"/><path class="cls-11" d="M786.03,929.1776c-10.2742,4.9671-37.0962-5.7283-62.8755-22.0858-5.7789,2.486-3.8384,39.7318-3.8384,39.7318s13.5874,18.103,52.5558,19.7518a9.9752,9.9752,0,0,0,2.3109-.2029C779.1423,960.3146,798.0189,923.3782,786.03,929.1776Z"/><path class="cls-9" d="M1023.6486,688.6816l-5.2765-7.2149c-29.0976-33.5724-52.2461-19.8177-52.2461-19.8177l-60.4326,11.5679L845.2608,661.649s-10.65-25.7489-39.7472,7.8235c0,0-43.0323,38.9354-41.3048,83.2234.4619,11.7862,19.2928,23.8515,18.8387,70.8591-.4593,47.0024-11.4183,158.9124-11.4183,158.9124s40.0566,29.0976,87.0592,31.34c38.1335,1.8163,45.3307,2.1561,46.6878,2.2221v.0153s.0052,0,.16-.01c.1522.01.1574.01.1574.01v-.0153c1.357-.066,8.5517-.4058,46.6854-2.2221,47.005-2.2426,87.0616-31.34,87.0616-31.34s-10.959-111.91-11.4157-158.9124c-.4593-47.0076,17.1387-96.9578,22.8392-101.4735C1060.0421,714.811,1023.6613,688.6918,1023.6486,688.6816Z"/><path class="cls-12" d="M900,1015.7736c3.519.1673,4.8645.2312,5.3762.2561v.0153s.0051,0,.16-.01c.1523.01.1575.01.1575.01v-.0153c.456-.0222,1.5791-.0756,4.3066-.2053V707H900Z"/><path class="cls-13" d="M856.6869,686.0634c5.8269-7.5952,10.9564-72.9087,10.9564-72.9087,7.8337,12.1516,40.2875,16.7078,40.2875,16.7078s32.4564-4.5562,40.29-16.7078c0,0,5.1269,65.3135,10.959,72.9087,5.8272,7.5954-51.2491,36.287-51.2491,36.287S850.8545,693.6588,856.6869,686.0634Z"/><path class="cls-14" d="M907.7354,1193.8468c.7409,9.7009,31.53,26.2562,71.077,24.7646,39.5418-1.4969,49.6131-13.43,47.3757-25.7437-2.24-12.3088-31.708-29.8434-31.708-29.8434s25.7413-86.5519,29.0976-98.8607-4.7822-10.1776-4.7822-10.1776-28.7929,10.5533-58.6362,15.0281a440.8432,440.8432,0,0,1-52.2285,4.8505Z"/><path class="cls-14" d="M903.7248,1193.8468c-.7458,9.7009-31.5329,26.2562-71.0772,24.7646-39.5415-1.4969-49.6129-13.43-47.3754-25.7437,2.2376-12.3088,31.708-29.8434,31.708-29.8434s-25.7413-86.5519-29.0976-98.8607c-3.3586-12.3087,4.777-10.1776,4.777-10.1776s28.7957,10.5533,58.6414,15.0281a440.7178,440.7178,0,0,0,52.2233,4.8505Z"/><path class="cls-15" d="M765.6269,455.8609c6.6694-84.025,66.871-149.8053,140.1805-149.8053,73.3451,0,133.57,65.8512,140.1883,149.9422,11.0858,1.7455,19.65,13.0242,19.65,26.7129,0,14.9013-10.1347,26.9768-22.6311,26.9768-.076,0-.15-.01-.2231-.01-14.7112,72.8528-70.4406,127.07-136.9843,127.07-66.564,0-122.2957-54.2428-136.9941-127.121-.3577.02-.7129.061-1.0758.061-12.4989,0-22.631-12.0755-22.631-26.9768C745.1065,468.6617,754.12,457.1343,765.6269,455.8609Z"/><path class="cls-8" d="M769.2546,487.0487s34.6939-77.5459,84.4945-88.7384c49.8006-11.1877,113.8685-40.285,113.8685-40.285s34.4172,50.9193,50.6454,67.1449c16.2256,16.2256,22.9405,53.72,22.9405,53.72s16.7862-34.9272,17.347-56.3534-29.8535-70.1078-58.0125-93.6091C972.3766,305.4215,890.68,272.97,822.9721,318.8515,755.2667,364.7376,737.359,414.0691,769.2546,487.0487Z"/><path class="cls-16" d="M907.9308,1073.8646a440.8432,440.8432,0,0,0,52.2285-4.8505c29.8433-4.4748,58.6362-15.0281,58.6362-15.0281s8.1384-2.1311,4.7822,10.1776c-.9134,3.3436-3.4807,12.1719-6.7278,23.2374.0051-.0252.37-12.4153-11.1773-12.4153-11.5679,0-77.2214,5.9719-83.193,31.335-4.2746,18.169-1.0833,40.9245,1.0679,52.3807,10.5026-2.0041,28.258-1.07,57.127,6.1849,0,0-53.8266,1.3241-60.9092,12.4153a19.5924,19.5924,0,0,0,.6036,9.2238c3.6049,11.5629,50.2345,16.4134,71.4958,11.1925,14.62-3.5921,21.1241-11.9384,24.4955-18.6254,4.98,4.5865,9.0489,9.498,9.8279,13.7752,2.2374,12.3137-7.8339,24.2468-47.3757,25.7437-39.5466,1.4916-70.3361-15.0637-71.077-24.7646Z"/><path class="cls-16" d="M784.9222,1192.8677c.7788-4.2772,4.8479-9.1887,9.8278-13.7752,3.3663,6.687,9.8757,15.0333,24.49,18.6254,21.2639,5.2209,67.8958.37,71.5007-11.1925a19.786,19.786,0,0,0,.2639-10.8627c-11.0429-9.5791-59.4281-10.7764-59.4281-10.7764,27.885-7.012,45.3892-8.1178,56.0212-6.3776,2.1511-11.5173,5.2817-34.1154,1.0274-52.188-5.9667-25.3631-71.6251-31.335-83.1881-31.335-11.5477,0-11.1824,12.39-11.1824,12.4153-3.242-11.0655-5.8093-19.8938-6.7224-23.2374-3.3563-12.3087,4.7793-10.1776,4.7793-10.1776s28.7957,10.5533,58.6388,15.0281a440.7215,440.7215,0,0,0,52.2236,4.8505l.2,119.9822c-.7458,9.7009-31.53,26.2562-71.077,24.7646C792.7559,1217.1145,782.6846,1205.1814,784.9222,1192.8677Z"/><path class="cls-11" d="M813.4616,655.7129s-26.3248,8.3309-25.1808,19.99c1.1417,11.6642,8.9526,22.8264,25.1808,25.48,16.2256,2.6534,13.9882,11.6745,36.3707,11.0809S870.3,719.23,889.0009,722.35c16.3753,2.7346,16.6925,1.5017,16.6925,1.5017l-3.4706-50.8077S832.4852,670.2591,813.4616,655.7129Z"/><path class="cls-11" d="M997.608,655.9462s26.3248,8.3309,25.1807,19.99c-1.1443,11.6643-8.9525,22.8215-25.1807,25.4751s-13.9882,11.6793-36.3707,11.0808c-22.3825-.5936-20.47,6.9661-39.1713,10.0914-16.3726,2.73-16.69,1.502-16.69,1.502l3.6633-51.1629S978.5818,670.4924,997.608,655.9462Z"/><path d="M896.3884,671.1925l5.558,5.1447c1.4511,1.4,2.6612,2.5978,3.9473,3.9473h.2436c1.2888-1.4,2.5775-2.6484,3.9473-3.9473l5.3983-5.1447h7.7324l-13.2931,11.6848L923.54,695.3687h-8.0571l-5.7205-5.4441c-1.5324-1.4-2.8185-2.75-4.1909-4.1961h-.16c-1.2913,1.4462-2.6588,2.745-4.11,4.1961l-5.6394,5.4441h-7.816l13.8586-12.3343-13.2118-11.8419Z"/><path d="M896.0712,695.3736l5.558,5.1448c1.4511,1.3952,2.6611,2.5977,3.9475,3.9472h.2434c1.2888-1.4,2.5775-2.6483,3.9473-3.9472l5.3986-5.1448h7.7321L909.605,707.0584,923.2228,719.55H915.166l-5.7207-5.444c-1.5322-1.4005-2.8183-2.75-4.1909-4.1961h-.16c-1.2913,1.4461-2.6585,2.745-4.11,4.1961l-5.6394,5.444H887.53l13.8588-12.3392-13.212-11.837Z"/><path class="cls-17" d="M970.8056,707a40.9565,40.9565,0,0,1-8.16-.8294,38.3554,38.3554,0,0,1-7.99.8262,40.9335,40.9335,0,0,1-9.18-1.0528,39.86,39.86,0,0,1-16.0084-7.67,153.918,153.918,0,0,1-23.5572-4.2464l-.2872.0718a151.299,151.299,0,0,1-24.13,4.22,39.8059,39.8059,0,0,1-15.9559,7.626,40.9609,40.9609,0,0,1-9.1764,1.0517,38.3223,38.3223,0,0,1-7.99-.8256,41.031,41.031,0,0,1-8.1574.8288,36.23,36.23,0,0,1-16.9835-4.0417q-1.2377.0763-2.4688.076c-10.8833,0-20.3716-4.3182-26.2209-11.5048-9.4958-3.2772-16.7467-9.9613-19.9484-18.2441a31.776,31.776,0,0,1-10.4847-10.489c-7.4921-4.4516-12.6492-11.2809-14.3519-19.0526a30.13,30.13,0,0,1-6.0862-7.9442c-11.958-4.79-19.8851-15.1024-19.9076-27.1591q-.0016-1.2633.1189-2.5255-.466-.9114-.8625-1.8479c-9.62-5.4057-15.612-14.67-15.6259-25.1066-.0011-.2368.0022-.4736.0086-.71a27.7148,27.7148,0,0,1-5.784-12.7413,27.6454,27.6454,0,0,1-7.8971-19.0735q-.0016-1.2915.12-2.5663a27.2629,27.2629,0,0,1-6.0958-17.0809c0-.2417.0021-.4828.0086-.7239a27.317,27.317,0,0,1-6.1462-17.0938q-.0049-1.2625.1135-2.5191a27.6551,27.6551,0,0,1-7.6206-18.767,26.3983,26.3983,0,0,1,1.1723-7.8446,27.08,27.08,0,0,1-4.56-14.8479,26.7555,26.7555,0,0,1,1.753-9.5809,26.6869,26.6869,0,0,1-1.7294-8.4,26.7067,26.7067,0,0,1-.8894-21.074,26.6853,26.6853,0,0,1,1.3941-22.06,26.6412,26.6412,0,0,1,1.3426-15.088,26.66,26.66,0,0,1-1.8709-9.837,27.3178,27.3178,0,0,1,6.4473-17.5353q-.0144-.44-.015-.88a27.1717,27.1717,0,0,1,4.7393-15.2053,26.6212,26.6212,0,0,1-.2764-3.8285c0-9.2874,4.8807-17.79,12.8592-23.3729a30.7433,30.7433,0,0,1,14.0347-18.6942,28.8906,28.8906,0,0,1,8.5217-14.7156c2.2823-10.8062,11.0655-19.4238,22.87-22.8634a32.1531,32.1531,0,0,1,13.0231-12.03c4.3729-9.8086,14.47-16.9883,26.9625-18.6781,5.9565-9.0982,17.2653-15.1158,30.51-15.1158a41.1937,41.1937,0,0,1,6.113.4575,38.9969,38.9969,0,0,1,16.0813-5.1759c6.4751-6.2817,15.883-10.0176,26.2027-10.0176a40.9675,40.9675,0,0,1,8.5035.8851,38.9387,38.9387,0,0,1,20.8238-5.7974,39.7838,39.7838,0,0,1,17.3971,3.89,39.7681,39.7681,0,0,1,17.3928-3.89,38.9547,38.9547,0,0,1,20.828,5.7974,40.9352,40.9352,0,0,1,8.4993-.8851c10.3229,0,19.733,3.7364,26.2092,10.0181a39.01,39.01,0,0,1,16.078,5.1754,41.1629,41.1629,0,0,1,6.11-.4575c13.2449,0,24.5537,6.0176,30.51,15.1158,12.4917,1.69,22.5886,8.8689,26.9614,18.676a32.1557,32.1557,0,0,1,13.0253,12.0325c11.8027,3.439,20.5849,12.0545,22.8682,22.858a28.89,28.89,0,0,1,8.53,14.7253,30.7332,30.7332,0,0,1,14.0271,18.6866c7.9828,5.5832,12.8657,14.0861,12.8657,23.3762a26.53,26.53,0,0,1-.2775,3.8328,27.1682,27.1682,0,0,1,4.7339,15.201q0,.4388-.015.8765a27.3222,27.3222,0,0,1,6.4473,17.539,26.6646,26.6646,0,0,1-1.8677,9.8306,26.7538,26.7538,0,0,1,1.3426,15.096,26.6532,26.6532,0,0,1,1.3941,22.0608,26.673,26.673,0,0,1-.89,21.0772,26.4557,26.4557,0,0,1-1.7241,8.4,26.6878,26.6878,0,0,1,1.7455,9.57,27.0356,27.0356,0,0,1-4.5593,14.8576,26.537,26.537,0,0,1,1.1776,7.84,27.705,27.705,0,0,1-7.6249,18.7659q.119,1.2568.1179,2.5234a27.3265,27.3265,0,0,1-6.1494,17.0939c.0064.2416.0085.4838.0085.7259a27.235,27.235,0,0,1-6.0979,17.0788q.12,1.2659.1189,2.547a27.66,27.66,0,0,1-7.8906,19.0837,27.709,27.709,0,0,1-5.7851,12.7478q.01.3672.0086.735c-.02,10.42-6.0134,19.6783-15.627,25.0814q-.3937.9339-.8593,1.842.1173,1.2415.1168,2.5025c-.0311,12.0818-7.96,22.3973-19.912,27.1869a30.17,30.17,0,0,1-6.0861,7.9464c-1.708,7.78-6.8642,14.6047-14.3519,19.0531a31.7775,31.7775,0,0,1-10.489,10.4906c-3.2049,8.2866-10.4537,14.9664-19.943,18.2414-5.8515,7.1867-15.3408,11.5043-26.2231,11.5043q-1.23,0-2.4666-.076A36.23,36.23,0,0,1,970.8056,707ZM904.3129,311.22c-68.3571,0-107.8681,11.7567-134.1126,76.0174-35.2474,86.2932,20.0533,182.4577,52.3562,215.5085,14.4986,14.8378,46.2411,35.8292,67.246,49.72,5.9554,3.9383,11.3548,7.5091,15.7544,10.5249,4.3718-2.9745,9.66-6.4135,15.5-10.2115,21.1656-13.7657,50.1532-32.6179,67.8771-50.2014,29.3745-29.135,86.1389-132.4759,52.2909-215.34-26.0849-63.8708-68.1718-75.9922-136.7111-76.018Z"/><path class="cls-18" d="M1112.9941,426.1368l3.5684-9.37a.32.32,0,0,0,.0266-.1339.98.98,0,0,0-.1125-.2866l-4.3662-8.3413,1.8588-9.1908a.3392.3392,0,0,0-.0256-.1554l-3.822-9.6753,3.822-9.6751a.3544.3544,0,0,0,.0256-.1565,1.4721,1.4721,0,0,0-.39-.7361l-6.3732-7.6892.331-9.9843a1.5429,1.5429,0,0,0-.25-.5069l-5.6758-8.4746,1.469-10.0636a3.9869,3.9869,0,0,0-1.6245-1.791l-8.2024-5.7375-2.3208-9.7368a5.1755,5.1755,0,0,0-2.3413-2.4446l-9.4058-5.8628-2.3818-10.8239a3.0736,3.0736,0,0,0-.8958-1.2424l-5.98-5.6491-1.7014-8.0492c-.1031-.4891-1.3545-2.1135-4.47-3.0211l-9.9961-2.9129-5.302-8.961a5.967,5.967,0,0,0-2.459-2.0509l-8.1948-4.24-3.7578-8.4263c-.4458-1.0014-2.5889-2.7833-6.44-3.3046l-11.9162-1.6115-6.5855-10.06c-.7265-1.109-3.4333-3.2065-8.479-3.2065a14.8823,14.8823,0,0,0-2.1975.165l-9.2827,1.3946-8.0715-4.7913a12.8,12.8,0,0,0-5.1895-1.6105l-9.1689-.8931-6.6123-6.4141c-1.2891-1.25-4.0354-2.5866-7.8745-2.5866a14.6211,14.6211,0,0,0-3.03.3108l-10.4859,2.2265-9.0595-5.73a12.8061,12.8061,0,0,0-6.7517-1.7192,13.51,13.51,0,0,0-5.87,1.2349L905.51,229.76l-11.522-5.6062a13.528,13.528,0,0,0-5.8762-1.2359,12.7888,12.7888,0,0,0-6.7442,1.7171l-9.0595,5.732-10.4869-2.2255a14.6824,14.6824,0,0,0-3.0368-.3113c-3.836,0-6.5779,1.3351-7.8657,2.5845l-6.6145,6.4168-9.1722.8925a12.7873,12.7873,0,0,0-5.1884,1.61l-8.0716,4.7923-9.2837-1.3951a14.9045,14.9045,0,0,0-2.2009-.165c-5.0456,0-7.7522,2.0975-8.4788,3.2065l-6.5854,10.06-11.9163,1.6115c-3.851.5213-5.9941,2.3038-6.4409,3.3051l-3.7568,8.428-8.1958,4.2389a5.9879,5.9879,0,0,0-2.4592,2.0514l-5.3008,8.9595-9.9951,2.9123c-3.117.9081-4.3685,2.5336-4.4715,3.0228l-1.6992,8.046-5.977,5.6489a3.0532,3.0532,0,0,0-.8936,1.2436l-2.3843,10.8228-9.4057,5.8617a5.1822,5.1822,0,0,0-2.3455,2.4462l-2.3186,9.7363-8.2,5.738a3.71,3.71,0,0,0-1.62,1.84l1.4617,10.0583-5.6758,8.4322a1.4394,1.4394,0,0,0-.2509.5192l.3269,9.9774-6.37,7.687a1.4772,1.4772,0,0,0-.39.7329.3482.3482,0,0,0,.0267.1565l3.8232,9.67-3.8157,9.6731a.4129.4129,0,0,0-.0312.1934l1.8657,9.2021-4.3772,8.3064a.9005.9005,0,0,0-.105.2716.3513.3513,0,0,0,.0266.149l3.565,9.3709-3.57,9.3687a.3255.3255,0,0,0-.0215.1458.3442.3442,0,0,0,.0525.1757l2.3359,4.8754.2261,5.4a.3566.3566,0,0,0,.0279.1286l3.5681,9.3688-3.5659,9.3693a.4141.4141,0,0,0-.0323.1259,1.446,1.446,0,0,0,.2283.4645l6.8042,10.407L700.43,487.8275a2.5094,2.5094,0,0,0,.6172.9381l7.9873,8.6568L707.939,509.13a1.5379,1.5379,0,0,0,.374.682l6.0195,7.4931-.2558,9.63c0,.097.0009.2776.3354.6965l6.6433,8.345-1.0029,10.6a2.102,2.102,0,0,0,.6223.9617l5.573,5.8451,1.3384,7.964a1.752,1.752,0,0,0,.37.6451l6.0283,7.5284-.26,9.6415.001-.0364c0,.3959.6814,1.3351,2.1923,2.1848l7.9024,4.5073,3.5039,8.3042,3.5027,6.8148-.7317,7.6549c.001.5936,1.1711,1.8843,3.3655,2.7629l9.01,3.6094,4.5134,8.5935a3.9711,3.9711,0,0,0,.7918.9847l5.9556,5.589,1.7475,7.9775a4.5675,4.5675,0,0,0,2.08,2.05l5.7,3.387,3.417,5.6839a5.5477,5.5477,0,0,0,1.8559,1.7154l7.4546,4.651,3.1673,8.196c.2646.6831,1.5407,2.0047,3.9775,2.8454l7.0945,2.4489,4.737,5.8205c.5059.6209,2.3682,1.7947,5.7981,1.7947.2818,0,.5667-.0085.8465-.0262l7.3933-.456,6.5469,3.4648a10.23,10.23,0,0,0,4.66.9831,14.6629,14.6629,0,0,0,2.9165-.3011l5.3684-1.0908,5.3577,1.14a12.076,12.076,0,0,0,2.51.2491,14.6137,14.6137,0,0,0,3.2747-.382,13.4627,13.4627,0,0,0,5.3906-2.5116l5.155-4.1309,2.95.0216s3.2915,6.5834,16.4585,0,13.1665,12.07,16.4582-10.9723c3.2918,23.0418,3.2918,4.3889,16.4585,10.9723s16.4585,0,16.4585,0l1.8984-.0139,5.105,4.105a13.5083,13.5083,0,0,0,5.4187,2.5308,14.5691,14.5691,0,0,0,3.2691.381,12.1142,12.1142,0,0,0,2.51-.25l5.3608-1.1406,5.3713,1.0935a14.6422,14.6422,0,0,0,2.906.3,10.2332,10.2332,0,0,0,4.6634-.9831l6.5478-3.4653,7.3946.457c.2788.0172.5615.0257.8422.0257,3.4322,0,5.2964-1.176,5.8023-1.7974l4.7373-5.8183,7.0923-2.4474c2.4321-.84,3.7085-2.1633,3.9741-2.8481l3.1694-8.1949,7.4546-4.65a5.5374,5.5374,0,0,0,1.8582-1.7177l3.417-5.6822,5.7-3.3865a4.4355,4.4355,0,0,0,2.0808-2.0605l1.7488-7.9683,5.948-5.5837a3.921,3.921,0,0,0,.7971-.9927l4.5112-8.5892,9.0059-3.61c2.3-.9214,3.3731-2.2217,3.3743-2.7666l-.7007-7.7079,3.5124-6.8443,3.5027-8.3075,7.86-4.4178c1.4969-.8406,2.1944-1.7959,2.1954-2.1714l-.2518-9.6286,6.0208-7.5188a1.7746,1.7746,0,0,0,.37-.6392l1.3343-7.9672,5.573-5.8483a2.0629,2.0629,0,0,0,.6213-.9682l-1.0115-10.6143,6.6594-8.3279c.3311-.4135.3311-.5925.3323-.6519l-.2593-9.634,6.0218-7.5258a1.5876,1.5876,0,0,0,.3762-.6842l-.8994-9.511c.2829-1.1.5527-2.2.8017-3.3l6.982-7.5493a2.0447,2.0447,0,0,0,.6089-.9874l-3.6456-11.8563,6.82-10.3605a1.5935,1.5935,0,0,0,.2216-.4393.3793.3793,0,0,0-.0278-.1553l-3.5425-9.424,3.5694-9.365.2143-5.4422,2.355-4.9108a.3334.3334,0,0,0,.0515-.17.3712.3712,0,0,0-.0278-.1517ZM1017.175,563.23c-8.92,16.8049-18.7783,30.4527-27.6362,39.5156C975.04,617.5834,943.0049,638.11,922,652q-.3282.217-.6716.4418a28.61,28.61,0,0,1-31.3473.1413q-.0892-.0586-.1786-.1178c-21.0049-13.89-52.7473-34.8819-67.2459-49.72C790.2537,569.6948,734.9529,473.53,770.2,387.2371,796.4448,322.9764,835.9558,311.22,904.313,311.22h.2014c1.29,0,2.5667.0069,3.8381.0161v-.0127c14.72.0171,27.6553.6894,39.1421,2.3882,43.9617,5.8847,73.6094,24.3573,93.7307,73.6263C1065.6868,447.1216,1042.8235,517.6934,1017.175,563.23Z"/><path class="cls-19" d="M1227.4377,173.1648s31.2666,66.1645,30.957,79.6121c-.3068,13.4452-27.555,24.9017-27.555,24.9017Z"/><path class="cls-11" d="M1227.4377,173.1648s-26.8981,68.0569-25.7133,81.4591c1.18,13.3943,29.1153,23.0547,29.1153,23.0547Z"/><path class="cls-11" d="M1030.3764,878.6752c-18.8259,11.1063-61.76,31.31-125,31.31-63.2433,0-106.1766-20.2035-125.0026-31.31-.5631,8.1636-1.18,16.4844-1.8215,24.6885,24.2445,12.6387,67.1477,29.0012,126.8241,29.0012s102.5795-16.3625,126.8215-29.0012C1031.5584,895.16,1030.9419,886.8388,1030.3764,878.6752Z"/><path class="cls-11" d="M791.1931,1053.8489s-9.962-1.588-11.38,17.0628,11.4562,24.5617,16.956,23.8463c5.5-.7206,4.7541,5.6215,18.1841,7.1183,13.43,1.4916,13.43-2.2426,13.43-2.2426s10.0714,9.7009,22.01,10.4467c11.9358.7458,16.7863-2.9832,16.7863-2.9832s5.5936,6.7125,18.6508,8.2041c13.06,1.4966,15.6827,1.3038,19.724-2.3491,4.5712-4.13-2.1793-41.2692-2.1793-41.2692s-35.45-1.8927-64.92-8.1129C823.1776,1060.3432,792.8017,1052.4487,791.1931,1053.8489Z"/><path class="cls-11" d="M1020.14,1053.8489s9.9649-1.588,11.3829,17.0628-11.459,24.5617-16.9589,23.8463c-5.4973-.7206-4.7538,5.6215-18.1815,7.1183-13.43,1.4916-13.43-2.2426-13.43-2.2426s-10.0737,9.7009-22.01,10.4467-16.7862-2.9832-16.7862-2.9832-5.5937,6.7125-18.6509,8.2041c-13.0595,1.4966-15.685,1.3038-19.7263-2.3491-4.5689-4.13,2.1792-41.2692,2.1792-41.2692s35.4522-1.8927,64.92-8.1129C988.1557,1060.3432,1018.5318,1052.4487,1020.14,1053.8489Z"/><path class="cls-8" d="M809.3543,431.4312s18.9174-13.6178,30.27-13.6178,35.569,3.7849,35.569-6.0581C875.193,401.9227,834.327,390.5678,809.3543,431.4312Z"/><path class="cls-8" d="M1000.538,431.4312s-18.92-13.6178-30.2721-13.6178c-11.35,0-35.5664,3.7849-35.5664-6.0581C934.7,401.9227,975.563,390.5678,1000.538,431.4312Z"/><path class="cls-20" d="M863.5693,480.6964c-25.4218-23.6686-47.6191-1.1567-48.5527-.1878l-6.4816-6.1745c.2868-.2992,29.1636-29.9551,61.1327-.1927Z"/><path class="cls-20" d="M988.8635,480.6964c-25.4241-23.6686-47.624-1.1567-48.555-.1878l-6.4792-6.1745c.2868-.2992,29.161-29.9551,61.1327-.1927Z"/><ellipse class="cls-8" cx="486.8936" cy="540.9565" rx="159.0472" ry="176.0006"/><path class="cls-9" d="M581.4122,1002.0721s-27.7252,47.2918-26.723,73.5327c.1179,3.1458-18.9034,11.1216-29.3247,14.323-17.0589,5.2412-39.72,5.2412-39.72,5.2412v-64.6336Z"/><path class="cls-9" d="M386.9762,1002.0721s27.7252,47.2918,26.7282,73.5327c-.1179,3.1458,18.8981,11.1216,29.3207,14.323,17.0577,5.2412,39.7205,5.2412,39.7205,5.2412v-64.6336Z"/><path class="cls-14" d="M482.903,1202.1473c-.4642,9.087-19.7518,24.5871-44.52,23.1919-24.7659-1.4-31.0736-12.5777-29.6709-24.105,1.3992-11.5326,19.8609-27.9461,19.8609-27.9461s-16.1279-81.0467-18.2259-92.5741c-2.1067-11.5274,2.991-9.5334,2.991-9.5334s18.0371,9.8835,36.73,14.0744a187.1767,187.1767,0,0,0,32.7123,4.5409Z"/><path class="cls-16" d="M408.4936,1201.2342c.4848-4.0083,3.0342-8.61,6.1545-12.9024,2.1081,6.2608,6.1824,14.0794,15.3365,17.4432,13.32,4.886,42.5262.35,44.7865-10.4823a27.349,27.349,0,0,0,.1623-10.1727c-6.9115-8.97-37.22-10.0864-37.22-10.0864,17.4648-6.5653,28.429-7.6054,35.0869-5.9769,1.3508-10.7816,3.31-31.9436.6471-48.87-3.7381-23.75-44.8616-29.341-52.1056-29.341-7.2349,0-7.0029,11.6035-7.0029,11.6238-2.0332-10.3605-3.6415-18.6254-4.21-21.7559-2.1067-11.5274,2.99-9.5334,2.99-9.5334s18.0371,9.8835,36.731,14.0744a187.1767,187.1767,0,0,0,32.7123,4.5409l.1219,112.3514c-.4668,9.087-19.75,24.5871-44.52,23.1919C413.3986,1223.9388,407.09,1212.7615,408.4936,1201.2342Z"/><path class="cls-10" d="M372.5594,1034.63l5.35-38.23,106.0816,31.8524L590.073,996.4l5.3552,38.23s-33.2111,21.1976-61.9027,29.128a267.0231,267.0231,0,0,1-49.18,9.0564v.0507s-.1395-.01-.354-.0252l-.35.0252v-.0507a267.0567,267.0567,0,0,1-49.1841-9.0564C405.77,1055.8275,372.5594,1034.63,372.5594,1034.63Z"/><path class="cls-10" d="M640.1882,972.7413s-7.1744,20.2895-16.9538,31.4719c-9.777,11.1772-14.32,3.8407-14.32,3.8407s-1.4815,1.75-5.4594-2.79c-3.974-4.546-3.5947-25.8553-1.3394-28.651C604.3729,973.8167,641.4211,969.4941,640.1882,972.7413Z"/><path class="cls-7" d="M594.1558,762.1077s21.0444,28.8438,38.3356,82.29c17.2935,53.4461,15.718,121.5653,15.718,121.5653s-10.36,15.3782-46.85,16.9208C564.8707,984.431,571.7988,780.7789,594.1558,762.1077Z"/><path class="cls-11" d="M589.5173,946.0739c13.1738,2.8515,33.0272-7.4228,57.1727-22.74,5.4111,2.3288,3.8813,41.0562,3.8813,41.0562s-12.7221,16.9511-49.212,18.4937a9.0814,9.0814,0,0,1-2.1678-.1878C594.553,977.0286,577.3252,943.4356,589.5173,946.0739Z"/><polygon class="cls-21" points="173.632 1062.851 178.316 1094.593 169.111 1075.072 149.506 1085.29 165.106 1064.336 173.632 1062.851"/><path class="cls-22" d="M212.4529,953.8935s13.77,7.0913,10.954,33.1116c-4.0306,37.1031-49.7745,75.8457-49.7745,75.8457l-8.5263,1.4856s-4.33-7.1822-2.5854-28.7254C164.2577,1014.0791,176.2405,975.78,212.4529,953.8935Z"/><path class="cls-23" d="M212.4529,953.8935s13.77,7.0913,10.954,33.1116c-4.0306,37.1031-49.7745,75.8457-49.7745,75.8457l-1.23.2142c10.4464-13.6,27.7837-37.8454,35.4858-58.1746C219.2927,974.8071,212.4529,953.8935,212.4529,953.8935Z"/><path class="cls-21" d="M175.9044,1005.8226s-14.835,7.0719-17.5622,12.1594c0,0,.4341-16.2146,13.7955-23.8223C185.4965,986.5523,175.9044,1005.8226,175.9044,1005.8226Z"/><path class="cls-21" d="M221.0515,992.3808a16.362,16.362,0,0,1-1.6323.7252,42.5811,42.5811,0,0,1-4.4818,1.4947,40.2556,40.2556,0,0,1-6.6049,1.164,30.4947,30.4947,0,0,1-3.8042.17c-1.3027.0431-2.6235-.1619-3.9467-.2439-1.3123-.2111-2.6256-.4675-3.8974-.78a25.9821,25.9821,0,0,1-3.6312-1.3223,17.6765,17.6765,0,0,1-3.1535-1.7594,15.35,15.35,0,0,1-2.529-1.9974c-.7071-.7071-1.3233-1.3727-1.8628-1.9647-.4691-.65-.8373-1.25-1.1565-1.7217-.6211-.9607-.9412-1.5143-.9412-1.5143s.4877.4493,1.2812,1.2394c.3982.3975.8568.8958,1.4171,1.419.6332.46,1.337.9633,2.0719,1.5453a19.6514,19.6514,0,0,0,2.5781,1.5589,21.9248,21.9248,0,0,0,3.0482,1.3725,34.8171,34.8171,0,0,0,3.4129,1.049c1.19.27,2.4189.4788,3.6471.6524,1.2437.1007,2.4758.325,3.7155.3036,1.2324.04,2.45.0982,3.6339.0314,2.3655-.036,4.5768-.27,6.4812-.4625,1.8947-.2473,3.5-.4238,4.6024-.65C220.4151,992.4927,221.0515,992.3808,221.0515,992.3808Z"/><path class="cls-24" d="M209.8529,972.9544c-.9947,2.0414-.3905,4.3914,1.3479,5.2416a4.1615,4.1615,0,0,0,3.6228-7.3841C213.0811,969.957,210.8531,970.9173,209.8529,972.9544Z"/><path d="M212.0473,954.3842l-11.4018-91.1081c-2.42-1.81-16.5937-11.8689-26.2287-7.0548-6.8114,3.4042-10.0614,13.4989-9.6588,30.0094l-2.2389.0534c-.4242-17.4571,3.242-28.2478,10.9019-32.0664,11.7877-5.8734,28.2764,7.0265,28.9725,7.5767l.3583.2841,11.5165,92.03Z"/><polygon class="cls-21" points="255.495 1065.339 249.947 1096.943 259.685 1077.683 278.996 1088.439 263.98 1067.061 255.495 1065.339"/><path class="cls-25" d="M219.6892,955.3522s-13.9618,6.7109-11.86,32.8032c3.011,37.2,47.6655,77.1839,47.6655,77.1839l8.4853,1.7221s4.5249-7.0592,3.3783-28.6446C266.2109,1016.8469,255.2887,978.2332,219.6892,955.3522Z"/><path class="cls-26" d="M219.6892,955.3522s-13.9618,6.7109-11.86,32.8032c3.011,37.2,47.6655,77.1839,47.6655,77.1839l1.2286.25c-10.0667-13.8817-26.7319-38.5974-33.8761-59.1275C212.2786,976.0694,219.6892,955.3522,219.6892,955.3522Z"/><path class="cls-21" d="M254.7979,1008.2719s14.6324,7.4765,17.2156,12.641c0,0,.0149-16.2222-13.13-24.2C245.74,988.746,254.7979,1008.2719,254.7979,1008.2719Z"/><path class="cls-21" d="M210.0367,993.5936s.6331.1282,1.742.3551c1.0965.2588,2.6954.4757,4.5822.78,1.9.2417,4.1034.5388,6.4675.6356,1.18.1021,2.399.0779,3.6317.0723,1.2387.0555,2.4765-.1341,3.7236-.197,1.2317-.148,2.466-.3219,3.6606-.5577a32.93,32.93,0,0,0,3.4426-.9538,22.1762,22.1762,0,0,0,3.0837-1.2888,20.2744,20.2744,0,0,0,2.62-1.4853c.75-.5622,1.4686-1.05,2.1131-1.4891.5746-.5084,1.0475-.991,1.4561-1.38.8141-.7681,1.3149-1.2024,1.3149-1.2024s-.335.5448-.9822,1.4841c-.3321.4628-.7159,1.0536-1.203,1.6956-.5552.5728-1.1909,1.22-1.9165,1.9074a14.9024,14.9024,0,0,1-2.5818,1.9254,17.4025,17.4025,0,0,1-3.2019,1.6734,24.73,24.73,0,0,1-3.6647,1.2213c-1.2806.2808-2.6007.4991-3.9181.6714a38.8167,38.8167,0,0,1-3.9506.1339,29.8643,29.8643,0,0,1-3.7989-.27,40.1363,40.1363,0,0,1-6.5694-1.3492,42.0207,42.0207,0,0,1-4.4375-1.6111A17.0723,17.0723,0,0,1,210.0367,993.5936Z"/><path class="cls-24" d="M221.7639,974.4847a3.5639,3.5639,0,1,1-4.91-2.2762C218.6205,971.3978,220.82,972.42,221.7639,974.4847Z"/><path class="cls-10" d="M245.3421,891.0754s-2.5334-25.3181-7.904-33.2493c-5.3751-7.9259-20.7606-12.32-31.196-8.5809-10.439,3.7394-23.9534,16.6118-23.3115,19.9885.6326,3.3724,18.945.1892,17.7408,2.9663-.96,2.2214,12.8734,32.3265,12.8734,32.3265S238.8339,900.3092,245.3421,891.0754Z"/><path class="cls-10" d="M193.9763,861.825s-18.3049-1.5919-21.5358,5.4608c-3.2388,7.0431,1.3318,19.4236,25.9814,8.9985C223.0765,865.8586,193.9763,861.825,193.9763,861.825Z"/><path class="cls-10" d="M195.265,873.51s-18.63,1.41-20.534,8.754c-1.9062,7.3489,5.0032,18.5994,27.7147,4.5344C225.158,872.728,195.265,873.51,195.265,873.51Z"/><path class="cls-10" d="M197.9685,884.6456s-18.63,1.4105-20.5366,8.7543,5.0058,18.5991,27.7168,4.529C227.8612,883.8636,197.9685,884.6456,197.9685,884.6456Z"/><path class="cls-10" d="M204.8877,895.227s-15.0495,1.1363-16.59,7.07c-1.541,5.939,4.0429,15.0314,22.394,3.6677C229.0462,894.5955,204.8877,895.227,204.8877,895.227Z"/><path class="cls-10" d="M202.6672,850.8144s-22.335,11.435-21.2055,17.99c1.1288,6.56,21.106,2.7555,26.9734.7651C214.3034,867.5737,202.6672,850.8144,202.6672,850.8144Z"/><path class="cls-7" d="M432.8276,779.4585c5.0867-25.8785-58.438-39.821-58.438-39.821s-4.1464,14.5743-23.45,34.5757c-.01.0113-13.8657,11.97-13.8779,11.9764-51.32,42.6668-106.2789,56.0238-106.2789,56.0238s-12.463,20.4351,10.7264,48.647c15.8968,19.3324,213.4552-58.0152,211.1977-120.1136,0,0-2.3647,10.0488-20.2642,10.0675A9.89,9.89,0,0,0,432.8276,779.4585Z"/><path class="cls-11" d="M287.8675,887.209c-11.3326-9.3486-25.1967-40.21-19.8531-58.4689-11.7-1.7972-39.114,10.9343-39.114,10.9343s-6.5814,9.5219.3967,32.6706c4.7491,15.754,7.78,20.99,15.41,26.6465C260.7295,898.5042,287.8675,887.209,287.8675,887.209Z"/><polygon class="cls-21" points="228.469 1072.919 247.754 1100.083 230.04 1086.361 216.721 1105.043 221.285 1078.311 228.469 1072.919"/><path class="cls-27" d="M213.0384,953.8328s16.0879.0721,25.7377,25.4739c13.7537,36.219-10.3067,93.6128-10.3067,93.6128l-7.1842,5.3914s-7.3967-4.6048-15.9326-25.3477C196.8173,1032.2253,189.8534,991.1507,213.0384,953.8328Z"/><path class="cls-28" d="M213.0384,953.8328s16.0879.0721,25.7377,25.4739c13.7537,36.219-10.3067,93.6128-10.3067,93.6128l-1.0386.7809c3.2538-17.5016,7.8694-48.1,5.42-70.54C229.2184,969.9527,213.0384,953.8328,213.0384,953.8328Z"/><path class="cls-21" d="M203.7,1019.0966s-10.3932,13.5332-10.5115,19.5186c0,0-7.2422-15.2,1.53-28.5346C203.4876,996.7463,203.7,1019.0966,203.7,1019.0966Z"/><path class="cls-21" d="M239.1309,985.3858a17.443,17.443,0,0,1-1.1736,1.4376,44.7528,44.7528,0,0,1-3.4521,3.48,42.2309,42.2309,0,0,1-5.5649,4.1727,30.58,30.58,0,0,1-3.44,1.9427c-1.182.6532-2.4991,1.0854-3.7608,1.6345-1.3118.4216-2.6456.8046-3.968,1.11a25.9224,25.9224,0,0,1-3.9747.4934,18.2168,18.2168,0,0,1-3.7419-.1375,15.7763,15.7763,0,0,1-3.2752-.6451c-.987-.3211-1.8736-.6424-2.6492-.9292-.7424-.3822-1.3656-.7613-1.8833-1.0443-1.0293-.5922-1.5876-.9475-1.5876-.9475s.6607.1864,1.7669.5513c.5528.1775,1.211.4255,1.9767.652.8.1263,1.692.2686,2.644.4607a20.4929,20.4929,0,0,0,3.1235.2372,22.5438,22.5438,0,0,0,3.4692-.1654,34.6894,34.6894,0,0,0,3.6592-.6344c1.2276-.3108,2.4658-.6943,3.6873-1.1116a38.1942,38.1942,0,0,0,3.5825-1.4731c1.16-.5435,2.3132-1.071,3.3763-1.6912,2.1711-1.1485,4.1065-2.41,5.7758-3.4909,1.6314-1.1278,3.0288-2.0533,3.9417-2.78C238.5967,985.7932,239.1309,985.3858,239.1309,985.3858Z"/><path class="cls-24" d="M219.6207,972.6919c.0382,2.3627,1.7011,4.246,3.7178,4.2157,2.0245-.0312,3.6308-1.9678,3.5943-4.3258s-1.7051-4.2455-3.7256-4.2148C221.19,968.3974,219.5852,970.3339,219.6207,972.6919Z"/><path class="cls-9" d="M585.8187,878.1427c2.5265-43.9433,23.1763-96.126,23.4-98.206,2.75-25.7388-25.7387-56.8709-16.7633-46.0994l-7.2973-8.7523c-27.2482-31.4415-44.9263-21.2891-44.9263-21.2891l-56.59,10.8323-56.5905-10.8323s-17.58-10.1524-44.8283,21.2891l-12.9455,16.0074-.01-.0049c-.0014,0-1.2394,1.5171-2.9518,3.6682l-.0468.0608h0c-3.97,4.9978-9.2367,18.0726-9.2367,19.5287,0,2.0955,22.3825,69.8542,24.9093,113.7975,4.4013,76.6174-23.3619,126.0705-23.3619,126.0705s37.5085,27.2457,81.5212,29.341c34.2943,1.6337,41.868,1.994,43.5411,2.0753v.0252s.0063,0,.2385-.0151c.2333.0151.2385.0151.2385.0151v-.0252c1.6729-.0813,9.2466-.4416,43.537-2.0753,44.0168-2.0953,81.525-29.341,81.525-29.341S581.4122,954.76,585.8187,878.1427Z"/><path class="cls-12" d="M478,1035.36c3.5029.167,5.0037.2388,5.6412.27v.0253s.0063,0,.2384-.0151c.2334.0151.2386.0151.2386.0151v-.0253c.4355-.0211,1.2787-.0615,2.8818-.1382V758h-9Z"/><path class="cls-13" d="M529.5352,731.26c-5.4607-7.59-10.26-72.8731-10.26-72.8731-7.3368,12.1462-37.728,16.6974-37.728,16.6974s-30.3913-4.5512-37.7265-16.6974c0,0-4.8047,65.2828-10.26,72.8731-5.4606,7.6,47.9867,36.2819,47.9867,36.2819S534.9906,738.86,529.5352,731.26Z"/><path class="cls-11" d="M390.8286,699.3972s-26.3235,8.3358-25.1807,19.9952c1.144,11.6645,8.9538,22.8215,25.1807,25.4751s13.9892,11.68,36.3717,11.0808c22.3825-.5936,20.4685,6.966,39.17,10.0916,16.3742,2.7294,16.6911,1.5018,16.6911,1.5018L479.59,716.7339S409.8548,713.9483,390.8286,699.3972Z"/><path class="cls-11" d="M574.9761,699.6305s26.3247,8.3309,25.1807,19.9954-8.9525,22.8213-25.1807,25.4748c-16.2267,2.6536-13.9893,11.6747-36.3718,11.0809s-20.4671,6.9663-39.1689,10.0864c-16.374,2.7349-16.6909,1.502-16.6909,1.502l3.6631-51.1629S555.9511,714.1819,574.9761,699.6305Z"/><path d="M473.7564,714.882l5.5581,5.1448c1.4511,1.3952,2.66,2.5977,3.9475,3.942h.2434c1.2887-1.3952,2.5761-2.6432,3.9475-3.942l5.3983-5.1448h7.7334l-13.2941,11.6845,13.6175,12.4914h-8.0568l-5.7207-5.444c-1.5321-1.4-2.82-2.75-4.19-4.1959h-.1624c-1.2887,1.4459-2.6572,2.7448-4.1082,4.1959l-5.6394,5.444h-7.8147l13.8575-12.3392L465.86,714.882Z"/><path d="M473.4392,739.0579l5.5584,5.15c1.4511,1.3952,2.66,2.5977,3.9472,3.942h.2437c1.2884-1.3952,2.5761-2.6432,3.9472-3.942l5.3983-5.15h7.7337l-13.2944,11.69,13.6178,12.4913H492.534l-5.72-5.444c-1.5324-1.4-2.8185-2.75-4.19-4.1958h-.1611c-1.29,1.4459-2.6587,2.7447-4.11,4.1958l-5.6394,5.444H464.899l13.8588-12.3441-13.2131-11.837Z"/><path class="cls-14" d="M485.4867,1202.1473c.4668,9.087,19.75,24.5871,44.52,23.1919,24.7646-1.4,31.0737-12.5777,29.6746-24.105-1.4041-11.5326-19.8646-27.9461-19.8646-27.9461s16.1267-81.0467,18.2246-92.5741c2.1068-11.5274-2.99-9.5334-2.99-9.5334s-18.0368,9.8835-36.7307,14.0744a187.1558,187.1558,0,0,1-32.7076,4.5409Z"/><path class="cls-15" d="M614.802,511.0929c-6.2509-78.6826-62.6181-140.2821-131.2662-140.2821-68.6822,0-125.0748,61.6605-131.2748,140.4089-10.3781,1.6287-18.3947,12.197-18.3947,25.0131,0,13.9527,9.4853,25.267,21.1891,25.267.07,0,.1395-.0153.2055-.0153,13.7788,68.2206,65.9626,118.993,128.2749,118.993,62.3315,0,114.5231-50.7976,128.2853-119.0436.3325.02.6647.0659,1.0048.0659,11.7048,0,21.195-11.3143,21.195-25.267C634.0209,523.0769,625.5783,512.28,614.802,511.0929Z"/><path class="cls-8" d="M377.7764,607.5891s-14.5982-62.4824-12.1641-87.1961c2.434-24.7191,12.1641-55.014,12.1641-55.014v47.0837s39.5113,18.9451,98.825,24.0239c59.3151,5.0737,112.9159-25.14,112.9159-25.14V454.2678s12.9125,108.8455,4.593,147.725c0,0,57.7778-75.684,51.8313-124.5739S625.4464,395.91,565.0141,370.8108c-60.4339-25.0994-123.1052-66.5055-192.4914,25.2618S340.8451,579.6127,377.7764,607.5891Z"/><path class="cls-16" d="M559.9,1201.2342c-.4894-4.0083-3.0378-8.61-6.1556-12.9024-2.1106,6.2608-6.1859,14.0794-15.339,17.4432-13.3209,4.886-42.5276.35-44.7878-10.4823a27.43,27.43,0,0,1-.1611-10.1727c6.9115-8.97,37.2191-10.0864,37.2191-10.0864-17.4647-6.5653-28.4276-7.6054-35.0869-5.9769-1.3495-10.7816-3.3079-31.9436-.6468-48.87,3.7379-23.75,44.8613-29.341,52.1053-29.341,7.2349,0,7.0043,11.6035,7.0043,11.6238,2.0319-10.3605,3.6414-18.6254,4.21-21.7559,2.1068-11.5274-2.991-9.5334-2.991-9.5334s-18.037,9.8835-36.73,14.0744a187.172,187.172,0,0,1-32.7086,4.5409l-.1268,112.3514c.4681,9.087,19.75,24.5871,44.52,23.1919C554.991,1223.9388,561.3027,1212.7615,559.9,1201.2342Z"/><path class="cls-17" d="M539.5459,739.083a35.8594,35.8594,0,0,1-6.959-.6885,33.7228,33.7228,0,0,1-6.8262.6856,35.8294,35.8294,0,0,1-8.0341-.9209,34.9488,34.9488,0,0,1-13.7139-6.4766,180.584,180.584,0,0,1-20.37-2.706,178.7919,178.7919,0,0,1-19.9815,2.6738,34.8868,34.8868,0,0,1-13.7656,6.5107,35.7881,35.7881,0,0,1-8.0244.919,33.7058,33.7058,0,0,1-6.8252-.6856,35.8791,35.8791,0,0,1-6.959.6885,31.8639,31.8639,0,0,1-14.6846-3.4355q-.9521.0512-1.9013.0517c-9.4717,0-17.749-3.73-22.9209-9.9512-8.1319-2.8769-14.3643-8.6191-17.2149-15.7334a28.0122,28.0122,0,0,1-8.8681-8.8935A26.3646,26.3646,0,0,1,350.08,684.666a26.6417,26.6417,0,0,1-5.02-6.5371c-10.3662-4.2744-17.2207-13.3174-17.2421-23.8745q-.003-.99.08-1.981-.2783-.558-.5273-1.1274c-8.33-4.7871-13.51-12.9063-13.5244-22.0483,0-.1031,0-.2061.001-.3091a24.5356,24.5356,0,0,1-4.8711-10.7588,24.4331,24.4331,0,0,1-6.7989-16.6939q-.0014-.9645.0752-1.9184a24.12,24.12,0,0,1-5.1758-14.855c0-.1045,0-.209.001-.314a24.1619,24.1619,0,0,1-5.2422-14.8862q-.0014-.9243.0694-1.8437a24.4635,24.4635,0,0,1-6.4756-16.3018,23.5978,23.5978,0,0,1,.9277-6.5786,23.9433,23.9433,0,0,1-3.8115-12.8218,23.5849,23.5849,0,0,1,1.4316-8.1689,23.6135,23.6135,0,0,1-1.4023-6.9366,23.7227,23.7227,0,0,1-.834-18.22,23.6765,23.6765,0,0,1,1.208-18.9585,23.7777,23.7777,0,0,1,1.124-12.7456,23.6523,23.6523,0,0,1-1.5273-8.39,24.1637,24.1637,0,0,1,5.4893-15.2749c-.003-.148-.0039-.2955-.0039-.4434a24.0212,24.0212,0,0,1,4.0039-13.186,23.43,23.43,0,0,1-.1993-3.06c0-8.1206,4.2022-15.5547,11.0889-20.4829a27.1219,27.1219,0,0,1,11.97-15.9688,25.5592,25.5592,0,0,1,7.2471-12.4624c2.0811-9.3183,9.625-16.7529,19.751-19.8139a28.3377,28.3377,0,0,1,11.0117-10.1538c3.873-8.4,12.5049-14.5577,23.1768-16.1216,5.2988-7.8169,15.1054-12.961,26.5585-12.961a36.032,36.032,0,0,1,5.0293.354,34.1853,34.1853,0,0,1,13.5166-4.3505,33.01,33.01,0,0,1,22.7579-8.5811,35.9457,35.9457,0,0,1,7.0869.7,34.2114,34.2114,0,0,1,17.94-4.8911,34.9382,34.9382,0,0,1,14.8457,3.2231,34.926,34.926,0,0,1,14.8457-3.2231,34.2114,34.2114,0,0,1,17.94,4.8911,35.9565,35.9565,0,0,1,7.0879-.7,33.0053,33.0053,0,0,1,22.7569,8.5811,34.2044,34.2044,0,0,1,13.5166,4.3505,36.007,36.007,0,0,1,5.0283-.354c11.4531,0,21.26,5.1441,26.5586,12.9605,10.6728,1.564,19.3056,7.7217,23.1787,16.1221A28.3521,28.3521,0,0,1,625.74,357.7061c10.1231,3.0615,17.6651,10.4946,19.7461,19.811a25.5622,25.5622,0,0,1,7.251,12.4653,27.1091,27.1091,0,0,1,11.9717,15.9693c6.8848,4.9272,11.0849,12.36,11.0849,20.4819a23.569,23.569,0,0,1-.1982,3.0561,24.0247,24.0247,0,0,1,4.0068,13.1895c0,.1484-.0009.2964-.0039.4448a24.1663,24.1663,0,0,1,5.4883,15.2735,23.6564,23.6564,0,0,1-1.5273,8.3911,23.7674,23.7674,0,0,1,1.123,12.7485,23.6522,23.6522,0,0,1,1.207,18.96,23.6813,23.6813,0,0,1-.8291,18.2075,23.4054,23.4054,0,0,1-1.4033,6.9482,23.6039,23.6039,0,0,1,1.43,8.1792,23.8953,23.8953,0,0,1-3.81,12.8057,23.5282,23.5282,0,0,1,.9248,6.5566,24.478,24.478,0,0,1-6.4775,16.3252q.0719.9273.0693,1.8613a24.1268,24.1268,0,0,1-5.2392,14.87c.001.1064.001.2134.001.32a24.0933,24.0933,0,0,1-5.18,14.8525q.0747.9492.0732,1.9082a24.42,24.42,0,0,1-6.7978,16.7022,24.5645,24.5645,0,0,1-4.8633,10.7475c.001.0982.0019.1958.0019.294-.02,9.1616-5.2011,17.2827-13.5283,22.0693-.167.38-.3418.7554-.5283,1.1279q.0835.9954.0811,1.9937c-.0215,10.55-6.879,19.5928-17.2491,23.8652a26.6221,26.6221,0,0,1-5.0156,6.5347,26.3714,26.3714,0,0,1-12.4141,16.4546,28.01,28.01,0,0,1-8.8759,8.8975c-2.8526,7.1171-9.0821,12.8535-17.2071,15.7294-5.1718,6.2208-13.4492,9.9512-22.9209,9.9512q-.9492,0-1.9023-.0517A31.86,31.86,0,0,1,539.5459,739.083Zm-54.88-337.7725c-59.4209.0235-93.6533,9.9786-115.8506,64.3243-16.1259,39.48-7.4863,81.6567,2.6006,110.0869,12.5469,35.3608,31.89,62.8652,41.83,72.7256,14.4609,14.3442,39.7764,30.1318,58.2617,41.6591l.1325.0827a22.4608,22.4608,0,0,0,23.8995-.0736l1.2795-.8093c19.1973-12.1412,45.4883-28.7691,57.1553-40.7056,27.4346-28.0718,74.4092-109.7324,44.4971-182.9663-22.2129-54.3755-55.6924-64.3238-113.6231-64.3238Z"/><path class="cls-18" d="M661.4092,498.4927l2.873-7.877a.6239.6239,0,0,0,.0391-.24.9676.9676,0,0,0-.1231-.38l-3.5654-7.1065,1.4541-7.72a.6076.6076,0,0,0-.042-.25l-3.0732-8.1308,3.0732-8.1314a.678.678,0,0,0,.042-.26c0-.1045,0-.35-.3848-.8262l-5.2646-6.5132.165-8.3789a1.3394,1.3394,0,0,0-.2509-.5933l-4.6621-7.2036,1.1044-8.4487c0-.3013-.456-1.0523-1.4707-1.7783l-6.8437-4.898-2.0664-8.1582a4.6307,4.6307,0,0,0-2.0713-2.2431L632.501,404.34l-2.1446-9.0576a2.93,2.93,0,0,0-.831-1.2051l-4.9785-4.7978-1.5069-6.748c-.1269-.5645-1.26-1.9942-3.958-2.81l-8.3955-2.5391-4.5732-7.4853a5.4472,5.4472,0,0,0-2.1533-1.8223l-6.8643-3.6377-3.2529-7.0552c-.4317-.9355-2.2862-2.5053-5.627-2.9951l-10.02-1.4682-5.6826-8.3829c-.9356-1.38-3.6885-2.8662-7.52-2.8662a12.97,12.97,0,0,0-1.8115.128l-7.878,1.1128-6.8818-3.9932a11.3355,11.3355,0,0,0-4.4023-1.3726l-7.7452-.8222-5.6513-5.3594a10.3037,10.3037,0,0,0-6.9317-2.271,12.972,12.972,0,0,0-2.5527.2485l-8.88,1.7867-7.7139-4.75a11.38,11.38,0,0,0-5.8818-1.4765,11.9946,11.9946,0,0,0-5.0644,1.04l-9.7793,4.5952-9.78-4.5937a12.0051,12.0051,0,0,0-5.0674-1.041,11.38,11.38,0,0,0-5.8818,1.4765l-7.7139,4.75-8.88-1.7867a12.9693,12.9693,0,0,0-2.5517-.2485,10.3039,10.3039,0,0,0-6.9336,2.2725l-5.6534,5.3588-7.7451.8213a11.3179,11.3179,0,0,0-4.3974,1.3716L412.332,342.71l-7.8779-1.1123a13.0334,13.0334,0,0,0-1.8145-.128c-3.832,0-6.5849,1.4859-7.52,2.8662l-5.6826,8.3834L379.416,354.187c-3.34.4893-5.1933,2.0591-5.625,2.9946l-3.2529,7.0572-6.8672,3.6377a5.424,5.424,0,0,0-2.15,1.8188l-4.5742,7.4873-8.3984,2.5391c-2.6993.8159-3.8331,2.2461-3.959,2.81L343.082,389.28l-4.9775,4.7983a2.91,2.91,0,0,0-.8291,1.2041l-2.1445,9.0557-7.8379,5.0161a4.6422,4.6422,0,0,0-2.0742,2.252L323.15,419.76l-6.8408,4.895c-1.1133.7969-1.4737,1.5425-1.4707,1.8369l1.1123,8.457-4.67,7.1377a1.3785,1.3785,0,0,0-.251.5816l.166,8.3818-5.2666,6.5225c-.3838.4751-.3838.72-.3838.8252a.6741.6741,0,0,0,.042.2588l3.0752,8.1372-3.0791,8.1357a.7814.7814,0,0,0-.0274.3716l1.4434,7.71-3.5693,6.9854a.88.88,0,0,0-.1182.39.6415.6415,0,0,0,.042.2393l2.8643,7.8716-2.8682,7.87a.66.66,0,0,0-.0381.2617.5888.5888,0,0,0,.0732.2871l1.9385,4.1191.2237,4.5464a.6039.6039,0,0,0,.04.1919l2.87,7.8784-2.873,7.877a.6332.6332,0,0,0-.0391.2427,1.29,1.29,0,0,0,.2275.5371l5.5547,8.7466-2.8711,9.9555a.7358.7358,0,0,0-.0273.135,2.0365,2.0365,0,0,0,.583.9988l6.5732,7.3711-.75,9.8091a1.571,1.571,0,0,0,.3741.7725l4.91,6.3618-.043,8.0581a1.1635,1.1635,0,0,0,.337.7871l5.4736,7.08-.71,8.8965a2.0843,2.0843,0,0,0,.5948,1.0351l4.6386,4.959,1.2022,6.6836a1.8339,1.8339,0,0,0,.3662.68l4.9072,6.3662-.04,8.0561c.001.5909.8174,1.4727,1.9844,2.1431l6.6113,3.8608,3.039,6.9449,2.8682,5.7885-.5312,6.4092c.0009.6875,1.0566,1.8526,3.01,2.6582l7.5586,3.1167,3.8955,7.188a3.6682,3.6682,0,0,0,.7012.88l4.96,4.7471,1.5459,6.6884a3.9855,3.9855,0,0,0,1.8906,1.9424l4.793,2.8921,2.9277,4.772a5.2993,5.2993,0,0,0,1.6328,1.5307l6.2324,3.9751,2.749,6.8619c.2188.5459,1.2393,1.792,3.5362,2.6054l5.9687,2.1114,4.0479,4.8691c.51.6143,2.1875,1.6533,5.2334,1.6533.2207,0,.4414-.0068.6631-.0185l6.2539-.3369,5.5625,2.8808a8.8662,8.8662,0,0,0,4.1064.8584,12.9588,12.9588,0,0,0,2.4961-.251l4.5615-.9023,4.5537.94a10.7619,10.7619,0,0,0,2.1729.21,12.8035,12.8035,0,0,0,2.876-.335,11.8874,11.8874,0,0,0,4.6816-2.1631l5.4219-4.27,3.5137-.2959q-.8706-.5429-1.7591-1.0974c.2563.0548.3948.0818.3948.0818s4,4,16-1c9.4443-3.9351,10.8354-4.7728,11-4.9513.1646.1785,1.5557,1.0162,11,4.9513,7.4326,3.0969,11.7908,2.74,14.0356,2.02l3.75.3115,5.4228,4.2539a11.9645,11.9645,0,0,0,4.6846,2.1612,12.8144,12.8144,0,0,0,2.8681.333,10.7959,10.7959,0,0,0,2.1758-.211l4.5557-.94,4.5625.9043a12.8687,12.8687,0,0,0,2.4912.25,8.8643,8.8643,0,0,0,4.1035-.8574l5.5625-2.8818,6.2559.3369c.2217.0117.4433.0185.664.0185,3.0459,0,4.7237-1.04,5.2354-1.6553l4.0449-4.8662,5.9658-2.1113c2.294-.8125,3.3145-2.0586,3.5323-2.6045l2.7529-6.8667,6.2383-3.9746a5.2844,5.2844,0,0,0,1.6328-1.5312l2.9267-4.7686,4.79-2.8911a3.993,3.993,0,0,0,1.8916-1.95l1.5469-6.6836,4.955-4.7442a3.648,3.648,0,0,0,.6983-.8774l3.8974-7.1924,7.5635-3.1162c1.8828-.7759,3.01-1.9551,3.0108-2.6694l-.543-6.4361,2.8926-5.7793,3.083-7.01,6.5527-3.7666c.9893-.5689,1.9883-1.4634,1.9893-2.1885l-.0821-8.0366,4.9414-6.3384a1.8128,1.8128,0,0,0,.3692-.6938l1.2051-6.6768,4.6367-4.9531a2.0192,2.0192,0,0,0,.5879-1.0874l-.7-8.89,5.4746-7.038c.333-.4283.334-.6431.334-.7305l-.0694-8.146,4.9375-6.3262a1.6072,1.6072,0,0,0,.3692-.8042l-.76-9.8213,6.584-7.3266a2.1177,2.1177,0,0,0,.5849-.9824.5427.5427,0,0,0-.0253-.1568l-2.87-9.9575,5.5577-8.7471a1.1967,1.1967,0,0,0,.2226-.5425.6189.6189,0,0,0-.04-.2329l-2.874-7.8872,2.8828-7.8843a.4254.4254,0,0,0,.03-.1333l.2149-4.5664,1.9453-4.1367a.6017.6017,0,0,0,.0752-.3022.67.67,0,0,0-.042-.2471ZM496.4922,690.1064l-.1325.0827a24.2208,24.2208,0,0,1-24.7194,0l-.1325-.0827c-18.4853-11.5273-43.8008-27.3149-58.2617-41.6591-9.94-9.86-29.2832-37.3648-41.83-72.7256-10.0869-28.43-18.7265-70.607-2.6006-110.0869,22.1138-54.1413,56.1758-64.224,115.1846-64.3222,59.0088.0982,93.0708,10.1809,115.1846,64.3222,16.1259,39.48,7.4863,81.6567-2.6006,110.0869-12.5469,35.3608-31.89,62.8652-41.83,72.7256C540.293,662.7915,514.9775,678.5791,496.4922,690.1064Z"/><polygon class="cls-18" points="308.43 551.146 308.43 551.146 308.43 551.146 308.43 551.146"/><path class="cls-11" d="M550.0694,1072.84s9.2227-7.9556,11.96,3.4905c3.1711,13.2525-8.7927,17.1086-12.14,17.1795s-2.6091,2.6333-10.6381,4.1351c-8.0254,1.5069-8.1927-.03-8.1927-.03a29.59,29.59,0,0,1-12.7933,5.7586c-7.1616,1.1009-10.2527-.1166-10.2527-.1166s-3.0658,3.14-10.87,4.6221c-7.802,1.4763-9.3926,1.5677-11.9929.3348-2.9427-1.4.4643-18.4175.4643-18.4175s20.2593-1.852,37.7407-6.3676C532.4145,1081.0844,545.6161,1075.2091,550.0694,1072.84Z"/><path class="cls-11" d="M418.3824,1072.84s-9.2227-7.9556-11.96,3.4905c-3.1711,13.2525,8.7938,17.1086,12.14,17.1795s2.61,2.6333,10.6382,4.1351c8.0267,1.5069,8.194-.03,8.194-.03a29.5888,29.5888,0,0,0,12.7932,5.7586c7.16,1.1009,10.2527-.1166,10.2527-.1166s3.0658,3.14,10.8691,4.6221c7.8033,1.4763,9.3926,1.5677,11.9929.3348,2.9427-1.4-.4629-18.4175-.4629-18.4175s-20.26-1.852-37.7418-6.3676C436.0375,1081.0844,422.8369,1075.2091,418.3824,1072.84Z"/><path class="cls-10" d="M476.869,951.2389c1.1949,0,1.7428-2.0852,2.9554-2.0953l-.837-20.3557,3.223-22.73c-55.6353.5429-90.5422-13.2473-100.1239-18.0773a288.7479,288.7479,0,0,1-2.7777,47.2359C399.1481,942.6542,431.7882,951.2389,476.869,951.2389Z"/><path class="cls-10" d="M490.4247,951.2389c-1.195,0-1.7428-2.0852-2.9555-2.0953l.8373-20.3557-3.2233-22.73c55.6354.5429,90.5423-13.2473,100.124-18.0773a288.7125,288.7125,0,0,0,2.778,47.2359C568.1456,942.6542,535.5055,951.2389,490.4247,951.2389Z"/><path class="cls-11" d="M474.4392,907.0829l5.56,8.3005c1.45,2.2527,2.6572,4.1857,3.9472,6.3623h.2424c1.2874-2.2577,2.5772-4.2719,3.9472-6.3623l5.397-8.3005h7.735l-13.293,18.8537L501.59,946.0739h-8.0571l-5.7191-8.7824c-1.5311-2.2527-2.82-4.4294-4.19-6.7632h-.1611c-1.2887,2.3338-2.6587,4.4291-4.1085,6.7632l-5.6407,8.7824H465.899l13.8575-19.8988-13.213-19.0922Z"/><path class="cls-11" d="M496.5054,896.6515a13.8861,13.8861,0,0,1,6.4221,1.3443,14.141,14.141,0,0,1,6.12-3.0087,13.0575,13.0575,0,0,1,9.0021,1.07,14.0848,14.0848,0,0,1,5.9628-2.8767,13.4032,13.4032,0,0,1,7.9186.5684,14.2,14.2,0,0,1,5.6345-2.6232,13.5012,13.5012,0,0,1,7.6282.4616,13.7476,13.7476,0,0,1,7.14-4.008,14.0331,14.0331,0,0,1,5.62-.0914,14.1538,14.1538,0,0,1,5.9108-2.831,13.9411,13.9411,0,0,1,5.6012-.0964,13.8651,13.8651,0,0,1,6.6658-3.5111c6.2836-1.4,12.2085,1.456,13.2333,6.3777s-3.24,10.0459-9.5245,11.446a13.9344,13.9344,0,0,1-5.6.0964,14.1752,14.1752,0,0,1-12.2859,3.6025,14.16,14.16,0,0,1-5.9106,2.836,13.5089,13.5089,0,0,1-7.63-.4564,13.7373,13.7373,0,0,1-7.14,4.003,13.4027,13.4027,0,0,1-7.9187-.5683,14.1921,14.1921,0,0,1-5.6344,2.6179,13.023,13.023,0,0,1-9.0006-1.0653,14.1423,14.1423,0,0,1-5.9615,2.8767,13.3963,13.3963,0,0,1-7.981-.5935,13.446,13.446,0,0,1-7.8451,2.6585c-6.426.1574-11.8521.751-11.85-8.8232C485.0832,901.0247,490.0784,896.8138,496.5054,896.6515Z"/><path class="cls-11" d="M498.7963,938.3366a13.9515,13.9515,0,0,1,6.4068,1.4207,14.0474,14.0474,0,0,1,6.1517-2.9378,13.0359,13.0359,0,0,1,8.9907,1.1721,14.1642,14.1642,0,0,1,5.9919-2.8107,13.4331,13.4331,0,0,1,7.9124.66,14.2107,14.2107,0,0,1,5.6622-2.552,13.4979,13.4979,0,0,1,7.6233.5429,13.7538,13.7538,0,0,1,7.183-3.922,14.0783,14.0783,0,0,1,5.62-.0255,14.1146,14.1146,0,0,1,5.9412-2.765,13.8894,13.8894,0,0,1,5.6012-.03,13.8324,13.8324,0,0,1,6.7024-3.4349c6.3-1.3293,12.1935,1.5932,13.165,6.53.9716,4.9315-3.3474,10.01-9.6464,11.34a13.9814,13.9814,0,0,1-5.6012.0255,14.1875,14.1875,0,0,1-12.3241,3.4651,14.182,14.182,0,0,1-5.9412,2.7653,13.4493,13.4493,0,0,1-7.622-.5479,13.7271,13.7271,0,0,1-7.1843,3.927,13.4409,13.4409,0,0,1-7.9136-.66,14.199,14.199,0,0,1-5.66,2.552,13.0293,13.0293,0,0,1-8.9894-1.1721,14.1042,14.1042,0,0,1-5.9919,2.8058,13.3517,13.3517,0,0,1-7.9758-.68,13.4418,13.4418,0,0,1-7.8706,2.5673c-6.4283.0863-11.2546-3.9475-11.7557-8.96C486.3683,938.57,492.3667,938.428,498.7963,938.3366Z"/><path class="cls-11" d="M470.7883,896.6515a13.8861,13.8861,0,0,0-6.4221,1.3443,14.14,14.14,0,0,0-6.12-3.0087,13.0569,13.0569,0,0,0-9.0019,1.07,14.0855,14.0855,0,0,0-5.9631-2.8767,13.4033,13.4033,0,0,0-7.9186.5684,14.1985,14.1985,0,0,0-5.6342-2.6232,13.5018,13.5018,0,0,0-7.6284.4616,13.7475,13.7475,0,0,0-7.14-4.008,14.0326,14.0326,0,0,0-5.62-.0914,14.1536,14.1536,0,0,0-5.9109-2.831,13.9411,13.9411,0,0,0-5.6012-.0964,13.8636,13.8636,0,0,0-6.6655-3.5111c-6.2838-1.4-12.2084,1.456-13.2335,6.3777s3.24,10.0459,9.5245,11.446a13.9344,13.9344,0,0,0,5.6.0964,14.1752,14.1752,0,0,0,12.2859,3.6025,14.16,14.16,0,0,0,5.9109,2.836,13.508,13.508,0,0,0,7.63-.4564,13.7329,13.7329,0,0,0,7.14,4.003,13.4042,13.4042,0,0,0,7.9189-.5683,14.19,14.19,0,0,0,5.6342,2.6179,13.0238,13.0238,0,0,0,9.0008-1.0653,14.14,14.14,0,0,0,5.9615,2.8767,13.3953,13.3953,0,0,0,7.9807-.5935,13.448,13.448,0,0,0,7.8454,2.6585c6.4257.1574,11.8521.751,11.8495-8.8232C482.2091,901.0247,477.2153,896.8138,470.7883,896.6515Z"/><path class="cls-11" d="M468.4976,938.3366a13.95,13.95,0,0,0-6.4068,1.4207,14.05,14.05,0,0,0-6.1519-2.9378,13.035,13.035,0,0,0-8.99,1.1721,14.1724,14.1724,0,0,0-5.9921-2.8107,13.4387,13.4387,0,0,0-7.9137.66,14.2029,14.2029,0,0,0-5.661-2.552,13.4967,13.4967,0,0,0-7.623.5429,13.7544,13.7544,0,0,0-7.1832-3.922,14.0773,14.0773,0,0,0-5.62-.0255,14.1175,14.1175,0,0,0-5.9412-2.765,13.8909,13.8909,0,0,0-5.6015-.03,13.83,13.83,0,0,0-6.7023-3.4349c-6.3-1.3293-12.1932,1.5932-13.1648,6.53-.9718,4.9315,3.3472,10.01,9.6461,11.34a13.9829,13.9829,0,0,0,5.6015.0255,14.1868,14.1868,0,0,0,12.3239,3.4651,14.1831,14.1831,0,0,0,5.9412,2.7653,13.4492,13.4492,0,0,0,7.622-.5479,13.7268,13.7268,0,0,0,7.1842,3.927,13.441,13.441,0,0,0,7.9137-.66,14.2,14.2,0,0,0,5.66,2.552,13.0294,13.0294,0,0,0,8.9894-1.1721,14.1037,14.1037,0,0,0,5.9919,2.8058,13.3515,13.3515,0,0,0,7.9758-.68,13.4417,13.4417,0,0,0,7.8705,2.5673c6.4284.0863,11.2547-3.9475,11.7558-8.96C480.9256,938.57,474.9272,938.428,468.4976,938.3366Z"/><path class="cls-11" d="M599.77,1033.1383c-2.8959-4.9318-10.57-5.7994-17.1439-1.9382a16.8424,16.8424,0,0,0-6.1761,6.1392,17.8735,17.8735,0,0,0-5.7838.5632,17.2562,17.2562,0,0,0-6.8507,3.5719,16.887,16.887,0,0,0-8.5226.832,17.4858,17.4858,0,0,0-5.8818,3.5108,17.4246,17.4246,0,0,0-6.74.472,17.1185,17.1185,0,0,0-7.1323,3.8205,17.7734,17.7734,0,0,0-5.6015.5835,16.8959,16.8959,0,0,0-7.4139,4.0945,17.5273,17.5273,0,0,0-6.1911.5224,17.2531,17.2531,0,0,0-6.6361,3.3944,17.3071,17.3071,0,0,0-6.9676.4362,17.6942,17.6942,0,0,0-5.6228,2.613,17.8188,17.8188,0,0,0-5.61-.7307c-3.5477.1016-6.8863-1.1568-9.2848.5632-2.3974-1.72-5.4479-.4616-8.9956-.5632a17.8051,17.8051,0,0,0-5.609.7307,17.7146,17.7146,0,0,0-5.6241-2.613,17.3046,17.3046,0,0,0-6.9673-.4362,17.248,17.248,0,0,0-6.6364-3.3944,17.5259,17.5259,0,0,0-6.1912-.5224,16.8953,16.8953,0,0,0-7.4139-4.0945,17.7683,17.7683,0,0,0-5.6-.5835,17.1318,17.1318,0,0,0-7.1336-3.8205,17.4246,17.4246,0,0,0-6.74-.472,17.4731,17.4731,0,0,0-5.8818-3.5108,16.8862,16.8862,0,0,0-8.5223-.832,17.2514,17.2514,0,0,0-6.851-3.5719,17.8735,17.8735,0,0,0-5.7838-.5632,16.8424,16.8424,0,0,0-6.1761-6.1392c-6.5741-3.8612-14.248-2.9936-17.1439,1.9382-2.8931,4.9315.09,12.06,6.6631,15.916a17.0447,17.0447,0,0,0,7.7347,2.38,15.8549,15.8549,0,0,0,9.38,6.4792,17.2152,17.2152,0,0,0,7.751.3044,17.7262,17.7262,0,0,0,13.44,4.551,17.1841,17.1841,0,0,0,6.8024,3.5313,17.7816,17.7816,0,0,0,5.6027.5785,17.13,17.13,0,0,0,7.1323,3.82,17.6655,17.6655,0,0,0,6.1925.5276,16.9272,16.9272,0,0,0,7.4113,4.0945,17.4105,17.4105,0,0,0,6.97.4362,17.7182,17.7182,0,0,0,14.46,3.6836,16.9046,16.9046,0,0,0,8.1495,2.2779,16.3686,16.3686,0,0,0,9.7251-2.6788,16.37,16.37,0,0,0,9.7248,2.6788,16.905,16.905,0,0,0,8.15-2.2779,17.7182,17.7182,0,0,0,14.46-3.6836,17.4105,17.4105,0,0,0,6.97-.4362,16.9227,16.9227,0,0,0,7.4116-4.0945,17.6639,17.6639,0,0,0,6.1921-.5276,17.1206,17.1206,0,0,0,7.1323-3.82,17.7819,17.7819,0,0,0,5.6028-.5785,17.1828,17.1828,0,0,0,6.8024-3.5313,17.7257,17.7257,0,0,0,13.44-4.551,17.217,17.217,0,0,0,7.7514-.3044,15.8549,15.8549,0,0,0,9.38-6.4792,17.0443,17.0443,0,0,0,7.7347-2.38C599.68,1045.1982,602.6631,1038.07,599.77,1033.1383Z"/><path class="cls-29" d="M419.5646,596.9444a16.2466,16.2466,0,1,1-16.2459-16.2155A16.2263,16.2263,0,0,1,419.5646,596.9444Z"/><path class="cls-29" d="M577.3506,596.9444a16.2465,16.2465,0,1,1-16.2459-16.2155A16.2271,16.2271,0,0,1,577.3506,596.9444Z"/><path class="cls-20" d="M443.9333,562.2914c-25.4216-23.6689-47.6214-1.1568-48.5512-.1827l-6.4815-6.18c.2878-.2993,29.1646-29.95,61.1326-.1928Z"/><path class="cls-20" d="M396.2978,556.0761c-.3982-.2029-9.7528-5.0635-10.3438-15.0536l2.2348-.1319c.5138,8.6912,9.0364,13.1457,9.1227,13.1865Z"/><path class="cls-20" d="M402.8124,553.9958c-.3982-.2081-9.7529-5.0586-10.3426-15.0535l2.2338-.132c.5136,8.6912,9.0375,13.1458,9.1224,13.1866Z"/><path class="cls-20" d="M519.9421,562.2914l-6.1011-6.5554c31.9717-29.7621,60.8446-.1065,61.1327.1928l-6.4805,6.18C567.56,561.1346,545.3574,538.6225,519.9421,562.2914Z"/><path class="cls-20" d="M567.5775,556.0761l-1.0147-1.999c.0863-.0408,8.61-4.4953,9.1237-13.1865l2.2335.1319C577.33,551.0126,567.9757,555.8732,567.5775,556.0761Z"/><path class="cls-20" d="M561.0629,553.9958l-1.0136-1.9989c.0852-.0408,8.6088-4.4954,9.1227-13.1866l2.2335.132C570.8158,548.9372,561.46,553.7877,561.0629,553.9958Z"/><path class="cls-8" d="M482.8711,647c-18.6436,0-25.1211-12.06-25.3877-12.5733a2.3219,2.3219,0,0,1,1.584-3.23,3.2777,3.2777,0,0,1,3.9306,1.2892c.2168.4063,5.3008,9.5905,19.8731,9.5905,14.5859,0,19.666-9.2,19.875-9.5917a3.29,3.29,0,0,1,3.94-1.2772,2.3152,2.3152,0,0,1,1.5733,3.2187C507.9932,634.94,501.5156,647,482.8711,647Z"/><path class="cls-8" d="M905.871,581.4046c-21.9168,0-29.5317-14.1775-29.8451-14.7808-.7634-1.47.07-3.17,1.8621-3.7966a3.8536,3.8536,0,0,1,4.6208,1.5156c.2549.4776,6.2315,11.2744,23.3622,11.2744,17.1469,0,23.1189-10.8152,23.3646-11.2758a3.8671,3.8671,0,0,1,4.6322-1.5015c1.7818.6316,2.6106,2.3187,1.85,3.7839C935.4039,567.2271,927.7891,581.4046,905.871,581.4046Z"/></g></svg>