<svg id="Calque_1" data-name="Calque 1" xmlns="http://www.w3.org/2000/svg" width="92.3698mm" height="61.0295mm" viewBox="0 0 261.8358 172.9971"><defs><style>.cls-1{fill:#1a4651;}</style></defs><path class="cls-1" d="M208,333.89c4.0676,5.5726,7.85,11.384,12.2647,16.6664,8.1947,9.8049,16.69,19.362,25.2027,28.8959a16.5446,16.5446,0,0,0,13.19,5.8492c20.9762-.2651,41.956-.2346,62.9342-.3445,4.5121-.0237,8.4071-1.2982,11.37-5.0967,3.7543-4.8137,3.4871-10.5982-1.017-14.5194-4.7193-4.1085-12.2772-4.3349-15.681.2377-2.4995,3.3578-3.8213,7.5963-5.6385,11.4561-.7813,1.66-1.4882,3.354-2.3287,5.2588-6.0382-4.9951-6.5783-16.8455-1.8837-23.9221,9.5836-14.4462,31.21-12.9612,40.42-3.6372,6.94,7.0262,6.3062,15.6418,4.6458,24.3787a4.6705,4.6705,0,0,1-.5367,1.3945c-3.4384,6.0769-2.0592,10.26,3.8769,14.357,8.039,5.5482,9.2835,14.9337,10.9581,23.8154,1.7008,9.021,1.7427,8.8715,11.1411,9.04,14.3132.2568,28.6239.6926,42.9309,1.1895a5.0544,5.0544,0,0,1,3.5091,1.7685,81.07,81.07,0,0,1,4.359,7.59c-10.94,0-21.381.0857-31.82-.0284-7.6545-.0837-15.307-.5652-22.9582-.5183-1.2087.0073-3.5743,2.143-3.4145,2.8357.8843,3.8352,1.3,8.7715,3.8849,11.0283,6.7581,5.899,8.9007,13.9077,11.8537,21.5458a57.1382,57.1382,0,0,1,3.7279,15.35c.5328,6.031-4.1441,9.0782-9.9642,7.2984-3-.9175-4.5755-3.1118-3.8365-6.0885,2.6172-10.5422-2.5078-17.5756-9.64-24.4677-8.764-8.4692-17.072-17.2784-29.2934-20.7808a8.4685,8.4685,0,0,1-3.4892-1.87c-11.1254-10.8147-25.0971-5.6683-37.9332-6.8058a3.5128,3.5128,0,0,0-2.2211.9279c-8.9418,7.52-19.7687,10.5069-30.7568,13.4488a19.7932,19.7932,0,0,0-10.1418,6.3854c-11.33,14.9871-22.1091,30.3918-33.0686,45.659-3.4775,4.8443-12.5318,6.2844-17.2021,2.7016-3.6146-2.7728-3.0884-9.677,2.2565-11.4943,11.4559-3.8951,12.9916-14.1862,17.1092-22.9359,1.7641-3.7486,2.6357-7.975,4.7354-11.4934,2.7628-4.63,2.0613-7.9374-1.3226-12.0006-11.63-13.9646-17.1573-30.9665-22.83-47.8433-1.1117-3.3074-2.04-6.6791-3.2237-9.9592-1.85-5.124-7.2042-7.46-14.1544-6.6738a74.8332,74.8332,0,0,1-11.37.46c-5.3913-.2166-5.4895-5.2974-6.7316-8.751-.3646-1.0137,2.4309-3.622,4.2175-4.8708,7.0465-4.9251,15.0344-8.6575,19.3128-16.8449a7.32,7.32,0,0,1,4.2788-3.2244c8.1051-2.0355,11.67-7.4638,12.2777-15.3678Z" transform="translate(-165.8808 -333.8898)"/></svg>