<svg id="Calque_1" data-name="Calque 1" xmlns="http://www.w3.org/2000/svg" width="221.0437mm" height="128.6001mm" viewBox="0 0 626.5805 364.5357"><defs><style>.cls-1{fill:#1c4752;}.cls-2{fill:#b2ec6d;}.cls-3{fill:#54befa;}</style></defs><path class="cls-1" d="M385.3336,537.7582a6.68,6.68,0,0,0-1.7677-.7108c-5.4448-.5054-10.8952-.9488-17.8862-1.5411,1.7757,4.1838,2.2692,8.4445,4.6523,10.39,7.6772,6.2684,9.3614,15.4763,12.8883,23.7312a47.0183,47.0183,0,0,1,3.4721,13.9412c.5639,6.0891-3.8872,9.57-9.8681,8.5975-4.1606-.6769-6.6561-3.7591-5.4959-7.803,2.4665-8.5979-.241-15.2749-6.6691-20.9466-7.5721-6.681-14.65-14.0193-22.7485-19.9764-6.5843-4.8434-14.3208-8.141-21.6343-11.9557a13.0335,13.0335,0,0,0-5.2266-1.24c-4.9826-.26-9.9812-.2042-14.9677-.4092-7.3067-.3-13.76.4792-20.5739,4.7764-7.6494,4.8244-17.2388,6.5017-25.8237,9.9479-3.5348,1.419-7.643,3.1344-9.7925,5.9921-11.5864,15.4042-22.8948,31.036-33.7369,46.9718-3.7383,5.4944-8.054,6.7638-13.9324,5.6471-3.574-.679-7.908-1.77-7.525-5.7757.3126-3.2679,2.8725-8.0724,5.5628-9.03,7.7982-2.7762,10.877-8.6424,13.5486-15.47q4.4421-11.3534,9.4269-22.4907c1.2511-2.7913,1.1131-4.8211-.9077-7.18-12.1659-14.1986-18.6018-31.2806-24.2475-48.7447-1.2275-3.7971-2.7777-7.5061-3.763-11.3619-2.0982-8.21-7.9817-9.2477-14.9984-8.9234a72.2776,72.2776,0,0,0-8.4192.9422c-4.6768.7723-7.2447-1.57-8.4278-5.692-1.1611-4.0444-1.0345-7.86,3.1332-10.4178,7.5121-4.61,14.877-9.2387,19.6106-17.2291,1.2937-2.1836,4.9235-3.1542,7.647-4.2807,4.312-1.7835,7.3326-4.2835,7.6033-9.3718.0827-1.5579,1.14-3.0641,2.1864-5.6854,4.5051,5.7984,8.26,11.3005,12.6864,16.196q16.4715,18.2187,33.5673,35.8638c1.6718,1.717,5.1515,2.3639,7.7859,2.3442q32.7193-.2451,65.4323-1.0635a23.5658,23.5658,0,0,0,9.504-2.5957c5.5547-2.7553,6.46-8.0693,2.9749-14.33-3.233-5.8074-8.9864-7.4608-14.7861-4.2823-4.6734,2.5613-7.1267,6.7031-8.4294,11.6842a16.8268,16.8268,0,0,1-1.0508,3.8291,24.773,24.773,0,0,1-2.88,3.5914c-1.0376-1.0195-2.46-1.8538-3.0532-3.0872-6.0125-12.5023,2.228-28.3676,15.5958-31.7593,5.6376-1.43,10.8393-2.5494,16.5077-.94,16.1157,4.5765,22.4664,19.9264,16.4462,34.0258-.1961.459-.4527.8927-.6393,1.355-2.8866,7.153-3.05,7.375,3.2245,12.06,9.3192,6.9577,11.6606,17.0925,12.77,27.5989,1.1244,10.6524.72,11.0122,11.0973,12.4193,13.8512,1.878,27.7742,3.237,41.68,4.6854a7.73,7.73,0,0,0,4.14-1.07c12.9477-6.9871,25.6543-14.4486,38.7991-21.0375,31.9907-16.0356,64.1511-31.7342,96.307-47.4377,7.8277-3.8226,15.9724-6.9924,23.8423-10.7338,7.075-3.3635,13.9356-7.1746,20.96-10.648,5.8684-2.9018,11.8373-5.6006,17.7623-8.389q0,57.1323-.0019,114.264c-1.9922-.1308-3.9825-.3276-5.9767-.3825-36.5928-1.0083-73.1837-2.1055-109.78-2.9616-30.4312-.7119-60.869-1.1361-91.3039-1.6878Z" transform="translate(-155.8426 -239.006)"/><path class="cls-2" d="M699.9969,540.72h6.3c-1.1692-2.7651-1.7278-4.8013-2.801-6.5154q-19.6782-31.428-39.494-62.77c-6.6228-10.491-4.6343-21.0855,5.8023-27.8479,14.1446-9.165,28.4622-18.0678,42.8338-26.8738,3.186-1.9522,4.1234-3.5609,2.2107-7.1153-5.9721-11.0968-11.5972-22.38-17.4209-33.5572-.584-1.121-1.6039-2.0148-3.2143-3.9829-.5073,2.9254-.95,4.8808-1.17,6.861-.624,5.6015-2.9193,10.0263-8.0133,12.939-11.6837,6.6806-23.2275,13.6064-34.936,20.2426-4.2523,2.41-8.8111,4.28-13.23,6.3975q-.9856.6238-1.9718,1.245c-4.1179.0492-8.2536-.1106-12.3459.2392-1.9341.1653-3.7846,1.3066-5.673,2.0057-2.1467-3.8633-4.9658-7.51-6.2931-11.6374-2.3906-7.4326.4458-12.752,7.8074-16.8566,12.7462-7.107,25.1525-14.9376,38.3379-21.1034,8.6053-4.0241,9.5154-10.5982,10.4637-18.3091,1.3339-10.8441,2.4617-21.8227,5.1725-32.3592,3.0642-11.91,11.5308-20.0622,22.8012-24.8233,9.2889-3.924,20.4574.7038,25.4558,10.1967q24.0159,45.61,47.8933,91.2931c6.3232,12.0915,3.5608,26.599-9.4043,33.98-18.0236,10.26-35.3986,21.6552-53.152,32.3979-3.6526,2.21-4.2,3.9792-1.7676,7.7834,14.3085,22.3816,28.3086,44.96,42.4488,67.45,4.9046,7.8007,5.34,15.9346,1.905,24.3237-1.9372,4.7305-5.4762,7.4142-10.76,7.4179-13.156.0092-26.3131.116-39.4675-.0239-6.9661-.074-11.7134-4.8406-12.329-11.8237-.9675-10.9789,1.8578-16.3847,10.0186-19.1683Q698,540.7228,699.9969,540.72Z" transform="translate(-155.8426 -239.006)"/><path class="cls-3" d="M616.8728,421.988c1.8884-.6991,3.7389-1.84,5.673-2.0057,4.0923-.35,8.228-.19,12.3464-.2388q.9915.2526,1.9819.5044a42.2709,42.2709,0,0,1,1.078,6.7373q.0954,69.4767.0479,138.9535v6.8463c2.17,0,4.0779-.0017,5.9855,0,33.1551.0338,138.4367,2.8308,138.4367,2.8308l.0009,16.3711s-42.7553,0-45.42-.0005c-88.97-.0294-177.9407.0585-266.91-.2212-14.8006-.0465-29.4887-2.32-43.3736-8.032-13.803-5.6779-23.1142-16.5044-31.7726-28.0309-3.209-4.2719-5.5949-9.251-12.0317-9.9565-1.409-.1544-2.4936-3.2687-3.7275-5.02q3.0729-1.4833,6.1462-2.9673,12.2509,1.1052,24.5029,2.2113a25.8739,25.8739,0,0,0,1.9316,4.4585c8.1635,12.105,19.7587,19.43,33.4063,23.96,12.6528,4.2,25.7783,5.19,38.8983,5.1709,40.6426-.0593,81.2847-.56,121.9269-.883,3.5794-.0284,7.16-.0037,10.896-.0037V545.0023q.0014-57.1318.0019-114.264Q616.8842,426.363,616.8728,421.988Z" transform="translate(-155.8426 -239.006)"/><path class="cls-2" d="M643.0361,268.1718c-.0149-15.9509,13.55-29.62,29.7764-29.1542,17.8269.5114,29.0333,13.4394,28.8392,29.3842-.213,17.5163-12.9126,29.1211-29.3117,28.9473C655.5214,297.1708,644.4011,285.78,643.0361,268.1718Z" transform="translate(-155.8426 -239.006)"/></svg>